<?xml version="1.0" encoding="UTF-8" standalone="no"?>
<svg width="23px" height="22px" viewBox="0 0 23 22" version="1.1" xmlns="http://www.w3.org/2000/svg" xmlns:xlink="http://www.w3.org/1999/xlink" xmlns:sketch="http://www.bohemiancoding.com/sketch/ns">
    <title>warning_panel_error</title>
    <description>Created with Sketch (http://www.bohemiancoding.com/sketch)</description>
    <defs></defs>
    <g id="black on white" stroke="none" stroke-width="1" fill="none" fill-rule="evenodd">
        <path d="M11.1771885,0 C5.10249463,0 0.177188509,4.92485714 0.177188509,11 C0.177188509,17.0751429 5.10249463,22 11.1771885,22 C17.2518824,22 22.1771885,17.0751429 22.1771885,11 C22.1771885,4.92485714 17.2518824,0 11.1771885,0 L11.1771885,0 Z M12.9731069,17.7346939 C12.9731069,17.9820816 12.771515,18.1836735 12.5241273,18.1836735 L9.83024973,18.1836735 C9.58286198,18.1836735 9.38127014,17.9820816 9.38127014,17.7346939 L9.38127014,15.0408163 C9.38127014,14.7934286 9.58286198,14.5918367 9.83024973,14.5918367 L12.5241273,14.5918367 C12.771515,14.5918367 12.9731069,14.7934286 12.9731069,15.0408163 L12.9731069,17.7346939 L12.9731069,17.7346939 Z M12.9731069,7.85714286 C12.9731069,8.10453061 12.9335967,8.50412245 12.8855559,8.74612245 L12.0769436,13.0289388 C12.0298008,13.2709388 11.7873518,13.6934286 11.540413,13.6934286 L10.835515,13.6934286 C10.5881273,13.6934286 10.3461273,13.2709388 10.2971885,13.0289388 L9.47106606,8.85836735 C9.42212728,8.61636735 9.38171912,8.10408163 9.38171912,7.85714286 L9.38171912,4.26530612 C9.38171912,4.01791837 9.58331096,3.81632653 9.83069871,3.81632653 L12.5245763,3.81632653 C12.771964,3.81632653 12.9735559,4.01791837 12.9735559,4.26530612 L12.9735559,7.85714286 L12.9731069,7.85714286 Z M12.9731069,7.85714286" id="Shape" fill="#FFA500"></path>
    </g>
</svg>