<?xml version="1.0" encoding="UTF-8" standalone="no"?>
<svg width="23px" height="22px" viewBox="0 0 23 22" version="1.1" xmlns="http://www.w3.org/2000/svg" xmlns:xlink="http://www.w3.org/1999/xlink" xmlns:sketch="http://www.bohemiancoding.com/sketch/ns">
    <title>warning_panel_info</title>
    <description>Created with Sketch (http://www.bohemiancoding.com/sketch)</description>
    <defs></defs>
    <g id="black on white" stroke="none" stroke-width="1" fill="none" fill-rule="evenodd">
        <path d="M11.2548822,0 C5.1801883,0 0.254882179,4.92485714 0.254882179,11 C0.254882179,17.0751429 5.1801883,22 11.2548822,22 C17.3295761,22 22.2548822,17.0751429 22.2548822,11 C22.2548822,4.92485714 17.3295761,0 11.2548822,0 L11.2548822,0 Z M10.356923,5.16326531 C10.356923,4.91587755 10.5585148,4.71428571 10.8059026,4.71428571 L12.601821,4.71428571 C12.8492087,4.71428571 13.0508005,4.91587755 13.0508005,5.16326531 L13.0508005,6.95918367 C13.0508005,7.20657143 12.8492087,7.40816327 12.601821,7.40816327 L10.8059026,7.40816327 C10.5585148,7.40816327 10.356923,7.20657143 10.356923,6.95918367 L10.356923,5.16326531 L10.356923,5.16326531 Z M14.8467189,16.8367347 C14.8467189,17.0841224 14.6451271,17.2857143 14.3977393,17.2857143 L9.00998422,17.2857143 C8.76259646,17.2857143 8.56100463,17.0841224 8.56100463,16.8367347 L8.56100463,15.0408163 C8.56100463,14.7934286 8.76259646,14.5918367 9.00998422,14.5918367 L10.356923,14.5918367 L10.356923,11 L9.00998422,11 C8.76259646,11 8.56100463,10.7984082 8.56100463,10.5510204 L8.56100463,8.75510204 C8.56100463,8.50771429 8.76259646,8.30612245 9.00998422,8.30612245 L12.601821,8.30612245 C12.8492087,8.30612245 13.0508005,8.50771429 13.0508005,8.75510204 L13.0508005,14.5918367 L14.3977393,14.5918367 C14.6451271,14.5918367 14.8467189,14.7934286 14.8467189,15.0408163 L14.8467189,16.8367347 L14.8467189,16.8367347 Z M14.8467189,16.8367347" id="Shape" fill="#FFA500"></path>
    </g>
</svg>