<?xml version="1.0" encoding="UTF-8" standalone="no"?>
<svg width="23px" height="20px" viewBox="0 0 23 20" version="1.1" xmlns="http://www.w3.org/2000/svg" xmlns:xlink="http://www.w3.org/1999/xlink" xmlns:sketch="http://www.bohemiancoding.com/sketch/ns">
    <title>warning_panel_warn</title>
    <description>Created with Sketch (http://www.bohemiancoding.com/sketch)</description>
    <defs></defs>
    <g id="black on white" stroke="none" stroke-width="1" fill="none" fill-rule="evenodd">
        <path d="M22.5852798,17.7184278 L12.7741708,1.09808792 C12.5621437,0.727654156 12.1690018,0.5 11.742966,0.5 C11.3169302,0.5 10.9241847,0.727654156 10.7117612,1.09808792 L0.900652284,17.7184278 C0.689417792,18.0864819 0.691003042,18.5394105 0.903030158,18.9066714 C1.1158499,19.2739323 1.50819914,19.5 1.93264969,19.5 L21.5532824,19.5 C21.9773366,19.5 22.3700822,19.2739323 22.5829019,18.9066714 C22.7953253,18.5398071 22.7969106,18.0864819 22.5852798,17.7184278 L22.5852798,17.7184278 Z M3.98435881,17.1207364 L11.7433623,3.79701916 L19.5023659,17.1207364 L3.98435881,17.1207364 L3.98435881,17.1207364 Z M12.9322994,14.2453137 L12.9322994,16.0300589 C12.9322994,16.1942554 12.7991385,16.3275164 12.6350652,16.3275164 L10.8516595,16.3275164 C10.6875862,16.3275164 10.5544252,16.1942554 10.5544252,16.0300589 L10.5544252,14.2453137 C10.5544252,14.0811172 10.6875862,13.9478562 10.8516595,13.9478562 L12.6350652,13.9478562 C12.7991385,13.9478562 12.9322994,14.0807206 12.9322994,14.2453137 L12.9322994,14.2453137 Z M10.949945,7.60209577 L12.5367797,7.60209577 C12.7543552,7.60209577 12.9322994,7.78017367 12.9322994,7.99791258 L12.9322994,9.4859934 C12.9322994,9.65018996 12.9061428,9.91512545 12.8740415,10.0745627 L12.3394161,12.8135515 C12.3077111,12.9729888 12.1472046,13.1542396 11.9835276,13.1542396 L11.5174643,13.1542396 C11.353391,13.1542396 11.1932808,12.9729888 11.1607832,12.8135515 L10.6134758,10.0991525 C10.5809782,9.93971528 10.5548215,9.64979335 10.5548215,9.48559679 L10.5548215,7.99751597 C10.5544252,7.78017367 10.7323695,7.60209577 10.949945,7.60209577 L10.949945,7.60209577 Z M10.949945,7.60209577" id="Shape" fill="#FFA500"></path>
    </g>
</svg>